<?xml version="1.0" encoding="UTF-8"?>
<svg version="1.1" xmlns="http://www.w3.org/2000/svg" width="256" height="256">
<path d="M0 0 C2.63293471 0.02147342 5.26314241 0.0000523 7.89599609 -0.02539062 C40.64120366 -0.07986276 70.43109872 14.23031431 93.625 37.01171875 C104.08468465 47.47478732 111.84217495 58.15285303 118.13427734 71.52148438 C118.90964844 73.08576172 118.90964844 73.08576172 119.70068359 74.68164062 C123.44774955 82.41055111 126.18032538 90.15501732 128.13427734 98.52148438 C128.3123291 99.25657227 128.49038086 99.99166016 128.67382812 100.74902344 C130.61136125 109.77699281 130.53036593 118.83187979 130.50927734 128.02148438 C130.50906586 128.86742157 130.50885437 129.71335876 130.50863647 130.58493042 C130.46482531 148.10462135 128.37721281 163.34188085 121.13427734 179.52148438 C120.76689453 180.35421875 120.39951172 181.18695313 120.02099609 182.04492188 C115.18844685 192.30786151 108.66735858 201.94512152 101.54443359 210.75195312 C99.96895469 212.67765666 99.96895469 212.67765666 98.13427734 215.52148438 C97.47427734 215.52148438 96.81427734 215.52148438 96.13427734 215.52148438 C96.13427734 216.18148437 96.13427734 216.84148437 96.13427734 217.52148438 C94.75927734 219.14648438 94.75927734 219.14648438 93.13427734 220.52148438 C92.47427734 220.52148438 91.81427734 220.52148438 91.13427734 220.52148438 C91.13427734 221.18148437 91.13427734 221.84148437 91.13427734 222.52148438 C90.47427734 222.52148438 89.81427734 222.52148438 89.13427734 222.52148438 C89.13427734 223.18148437 89.13427734 223.84148437 89.13427734 224.52148438 C87.31773552 226.14197447 85.50910825 227.6189768 83.57177734 229.08398438 C82.69863892 229.74672363 82.69863892 229.74672363 81.80786133 230.42285156 C68.55109746 240.2927738 54.35822822 247.49158568 38.50927734 252.27148438 C37.85330566 252.47032227 37.19733398 252.66916016 36.52148438 252.87402344 C25.32377982 256.0796516 14.24792518 256.93207109 2.63427734 256.89648438 C1.93284607 256.89560822 1.23141479 256.89473206 0.50872803 256.89382935 C-36.7870124 256.74072174 -67.27240505 241.04130255 -93.37353516 215.02148438 C-99.55924338 208.46937532 -104.16791813 201.15885081 -108.86572266 193.52148438 C-109.80307629 192.10472086 -110.74054671 190.68803459 -111.67822266 189.27148438 C-114.36385854 184.9176378 -116.13296922 180.32088447 -117.86572266 175.52148438 C-118.27951172 174.4309375 -118.69330078 173.34039062 -119.11962891 172.21679688 C-124.4026353 157.55054031 -126.11292207 143.21157565 -126.17822266 127.64648438 C-126.18378174 126.54208008 -126.18934082 125.43767578 -126.19506836 124.29980469 C-126.01154404 103.28705451 -120.5745441 81.23746077 -109.06494141 63.47460938 C-107.7107442 61.43472548 -107.7107442 61.43472548 -106.86572266 58.52148438 C-106.20572266 58.52148438 -105.54572266 58.52148438 -104.86572266 58.52148438 C-104.79224609 57.97621094 -104.71876953 57.4309375 -104.64306641 56.86914062 C-103.56420795 53.61087965 -101.64443533 51.56525048 -99.42822266 48.95898438 C-97.08847323 46.1910946 -94.87696292 43.53834478 -92.86572266 40.52148438 C-92.20572266 40.52148438 -91.54572266 40.52148438 -90.86572266 40.52148438 C-90.53572266 39.53148437 -90.20572266 38.54148438 -89.86572266 37.52148438 C-89.20572266 37.52148438 -88.54572266 37.52148438 -87.86572266 37.52148438 C-87.86572266 36.86148438 -87.86572266 36.20148437 -87.86572266 35.52148438 C-87.20572266 35.52148438 -86.54572266 35.52148438 -85.86572266 35.52148438 C-85.86572266 34.86148438 -85.86572266 34.20148437 -85.86572266 33.52148438 C-85.20572266 33.52148438 -84.54572266 33.52148438 -83.86572266 33.52148438 C-83.86572266 32.86148438 -83.86572266 32.20148437 -83.86572266 31.52148438 C-61.32662383 10.5701661 -30.41648812 -0.29393373 0 0 Z " fill="#E8E8E8" transform="translate(125.86572265625,-0.521484375)"/>
<path d="M0 0 C2.63293471 0.02147342 5.26314241 0.0000523 7.89599609 -0.02539062 C40.64120366 -0.07986276 70.43109872 14.23031431 93.625 37.01171875 C104.08468465 47.47478732 111.84217495 58.15285303 118.13427734 71.52148438 C118.90964844 73.08576172 118.90964844 73.08576172 119.70068359 74.68164062 C123.44774955 82.41055111 126.18032538 90.15501732 128.13427734 98.52148438 C128.3123291 99.25657227 128.49038086 99.99166016 128.67382812 100.74902344 C130.61136125 109.77699281 130.53036593 118.83187979 130.50927734 128.02148438 C130.50906586 128.86742157 130.50885437 129.71335876 130.50863647 130.58493042 C130.46482531 148.10462135 128.37721281 163.34188085 121.13427734 179.52148438 C120.76689453 180.35421875 120.39951172 181.18695313 120.02099609 182.04492188 C115.18844685 192.30786151 108.66735858 201.94512152 101.54443359 210.75195312 C99.96895469 212.67765666 99.96895469 212.67765666 98.13427734 215.52148438 C97.47427734 215.52148438 96.81427734 215.52148438 96.13427734 215.52148438 C96.13427734 216.18148437 96.13427734 216.84148437 96.13427734 217.52148438 C94.75927734 219.14648438 94.75927734 219.14648438 93.13427734 220.52148438 C92.47427734 220.52148438 91.81427734 220.52148438 91.13427734 220.52148438 C91.13427734 221.18148437 91.13427734 221.84148437 91.13427734 222.52148438 C90.47427734 222.52148438 89.81427734 222.52148438 89.13427734 222.52148438 C89.13427734 223.18148437 89.13427734 223.84148437 89.13427734 224.52148438 C87.31773552 226.14197447 85.50910825 227.6189768 83.57177734 229.08398438 C82.69863892 229.74672363 82.69863892 229.74672363 81.80786133 230.42285156 C68.55109746 240.2927738 54.35822822 247.49158568 38.50927734 252.27148438 C37.85330566 252.47032227 37.19733398 252.66916016 36.52148438 252.87402344 C25.32377982 256.0796516 14.24792518 256.93207109 2.63427734 256.89648438 C1.93284607 256.89560822 1.23141479 256.89473206 0.50872803 256.89382935 C-36.7870124 256.74072174 -67.27240505 241.04130255 -93.37353516 215.02148438 C-99.55924338 208.46937532 -104.16791813 201.15885081 -108.86572266 193.52148438 C-109.80307629 192.10472086 -110.74054671 190.68803459 -111.67822266 189.27148438 C-114.36385854 184.9176378 -116.13296922 180.32088447 -117.86572266 175.52148438 C-118.27951172 174.4309375 -118.69330078 173.34039062 -119.11962891 172.21679688 C-124.4026353 157.55054031 -126.11292207 143.21157565 -126.17822266 127.64648438 C-126.18378174 126.54208008 -126.18934082 125.43767578 -126.19506836 124.29980469 C-126.01154404 103.28705451 -120.5745441 81.23746077 -109.06494141 63.47460938 C-107.7107442 61.43472548 -107.7107442 61.43472548 -106.86572266 58.52148438 C-106.20572266 58.52148438 -105.54572266 58.52148438 -104.86572266 58.52148438 C-104.79224609 57.97621094 -104.71876953 57.4309375 -104.64306641 56.86914062 C-103.56420795 53.61087965 -101.64443533 51.56525048 -99.42822266 48.95898438 C-97.08847323 46.1910946 -94.87696292 43.53834478 -92.86572266 40.52148438 C-92.20572266 40.52148438 -91.54572266 40.52148438 -90.86572266 40.52148438 C-90.53572266 39.53148437 -90.20572266 38.54148438 -89.86572266 37.52148438 C-89.20572266 37.52148438 -88.54572266 37.52148438 -87.86572266 37.52148438 C-87.86572266 36.86148438 -87.86572266 36.20148437 -87.86572266 35.52148438 C-87.20572266 35.52148438 -86.54572266 35.52148438 -85.86572266 35.52148438 C-85.86572266 34.86148438 -85.86572266 34.20148437 -85.86572266 33.52148438 C-85.20572266 33.52148438 -84.54572266 33.52148438 -83.86572266 33.52148438 C-83.86572266 32.86148438 -83.86572266 32.20148437 -83.86572266 31.52148438 C-61.32662383 10.5701661 -30.41648812 -0.29393373 0 0 Z M-26.86572266 19.52148438 C-27.58816162 19.72032227 -28.31060059 19.91916016 -29.05493164 20.12402344 C-47.71574539 25.49537429 -62.77206138 35.28054882 -76.86572266 48.52148438 C-77.51927734 49.08738281 -78.17283203 49.65328125 -78.84619141 50.23632812 C-93.79315199 63.82727579 -102.93969728 84.28770691 -107.86572266 103.52148438 C-108.09130859 104.38902344 -108.31689453 105.2565625 -108.54931641 106.15039062 C-114.61649734 134.89627545 -107.19860154 165.89977991 -91.86572266 190.52148438 C-89.4016484 194.0665414 -86.74189044 197.30596217 -83.86572266 200.52148438 C-83.16833984 201.3490625 -82.47095703 202.17664063 -81.75244141 203.02929688 C-64.60053391 222.95353756 -38.8450577 237.30012619 -12.54931641 240.27929688 C6.50002684 241.53174574 24.08763801 239.91381451 42.13427734 233.52148438 C43.05982422 233.20179688 43.98537109 232.88210937 44.93896484 232.55273438 C72.72338189 222.25563413 93.46735987 199.61715011 105.78710938 173.3605957 C117.30519019 147.75737491 118.00606738 115.85954942 108.50927734 89.45898438 C103.68850327 76.98838681 96.95893069 65.56510734 88.13427734 55.52148438 C87.47169922 54.71582031 86.80912109 53.91015625 86.12646484 53.08007812 C69.17216042 33.09151627 43.95399598 20.27453962 18.13427734 16.52148438 C13.66524807 16.31045488 9.19715881 16.29348183 4.72387695 16.28125 C2.60180287 16.27162062 0.48073108 16.24058369 -1.64111328 16.20898438 C-10.39900712 16.14067476 -18.40990444 17.09556796 -26.86572266 19.52148438 Z " fill="#0DBCDE" transform="translate(125.86572265625,-0.521484375)"/>
<path d="M0 0 C0.94101563 -0.04253906 1.88203125 -0.08507813 2.8515625 -0.12890625 C12.5280424 1.76991519 21.4783483 8.9870137 29.75 14.125 C30.89396591 14.83269433 32.03809309 15.54012802 33.18237305 16.24731445 C35.48865331 17.67332302 37.79390287 19.10097314 40.09814453 20.53027344 C43.06271718 22.36882975 46.028944 24.20466925 48.99609375 26.0390625 C52.41910485 28.15572393 55.84097346 30.27421005 59.26171875 32.39453125 C63.75532112 35.17967834 68.25252948 37.95895577 72.75048828 40.73706055 C75.41276869 42.38355167 78.0718712 44.03507079 80.73046875 45.6875 C83.44954485 47.37659817 86.17578525 49.04927313 88.92578125 50.6875 C95.18047019 54.47924648 100.977212 58.36913599 103.375 65.5625 C103.4940686 67.35129802 103.55022113 69.1447856 103.5625 70.9375 C103.57667969 71.87335938 103.59085937 72.80921875 103.60546875 73.7734375 C103.12015605 79.64654369 100.73485629 82.74762574 96.375 86.5625 C89.82842132 91.42573755 82.99383169 95.6761428 75.9375 99.75 C66.95765111 104.99361224 58.11412692 110.41779683 49.34375 116.00390625 C48.663125 116.43590332 47.9825 116.86790039 47.28125 117.31298828 C46.05194172 118.11877718 44.84128651 118.9541426 43.65625 119.82373047 C39.89087088 122.5736339 39.89087088 122.5736339 37.203125 122.515625 C35.02626503 121.38068091 33.72679023 120.17316541 32.125 118.3125 C31.34382813 117.43851563 31.34382813 117.43851563 30.546875 116.546875 C28.97634723 113.88744798 28.70093868 112.59577596 29.375 109.5625 C31.45481727 107.84439008 33.2985538 106.62454576 35.625 105.3125 C37.0794682 104.44798584 38.53389157 103.58339624 39.98828125 102.71875 C40.82311035 102.23148437 41.65793945 101.74421875 42.51806641 101.2421875 C47.69546617 98.19821977 52.81838308 95.06356192 57.9498291 91.94299316 C59.77654859 90.83431965 61.60609384 89.73046479 63.43652344 88.62792969 C69.29401014 85.09252927 75.07938388 81.50773412 80.68774414 77.58496094 C82.375 76.5625 82.375 76.5625 84.375 76.5625 C85.02744585 73.36551532 85.13240433 70.74992268 84.375 67.5625 C82.5092398 65.67397917 82.5092398 65.67397917 80.01171875 64.16796875 C79.10035156 63.57089111 78.18898438 62.97381348 77.25 62.35864258 C76.30125 61.76591553 75.3525 61.17318848 74.375 60.5625 C73.50359375 60.01424561 72.6321875 59.46599121 71.734375 58.90112305 C69.02403412 57.2230173 66.29649379 55.57676184 63.5625 53.9375 C61.52431771 52.70642736 59.48656629 51.4746411 57.44921875 50.2421875 C56.43134277 49.62698242 55.4134668 49.01177734 54.36474609 48.37792969 C49.84943524 45.63614857 45.36230685 42.84977744 40.875 40.0625 C39.16407569 39.00648904 37.45313805 37.95049969 35.7421875 36.89453125 C31.87480822 34.50356476 28.03216092 32.07634369 24.1953125 29.63671875 C22.13040251 28.34083637 20.06530254 27.04525666 18 25.75 C17.04287109 25.13253906 16.08574219 24.51507813 15.09960938 23.87890625 C8.21917773 19.56232014 8.21917773 19.56232014 0.375 19.5625 C-1.36170159 20.79413344 -1.36170159 20.79413344 -2.625 22.5625 C-2.91111313 25.65988486 -3.01385773 28.55464135 -2.98144531 31.65209961 C-2.98348969 32.58245529 -2.98553406 33.51281097 -2.98764038 34.47135925 C-2.99065318 37.55271943 -2.97215447 40.63354699 -2.953125 43.71484375 C-2.95006782 45.85331591 -2.94819139 47.99179006 -2.94744873 50.13026428 C-2.94284233 54.61515914 -2.92840461 59.09987479 -2.90625 63.5847168 C-2.87798454 69.33612865 -2.86704044 75.08739915 -2.8625679 80.83887386 C-2.8584119 85.25604164 -2.84859261 89.67318078 -2.83669281 94.09033394 C-2.83099159 96.21104262 -2.8262324 98.33175404 -2.82242584 100.45246696 C-2.8155557 103.41619577 -2.80191902 106.3798128 -2.78613281 109.34350586 C-2.78501495 110.22208252 -2.78389709 111.10065918 -2.78274536 112.00585938 C-2.77418015 113.21924232 -2.77418015 113.21924232 -2.76544189 114.45713806 C-2.76246723 115.15749145 -2.75949257 115.85784483 -2.75642776 116.57942104 C-2.61761557 118.67392175 -2.19330018 120.54552555 -1.625 122.5625 C-1.04492188 122.51867187 -0.46484375 122.47484375 0.1328125 122.4296875 C2.83443441 122.43860374 4.82291968 122.64275677 7.375 123.5625 C10.14889763 126.5455407 12.06279793 129.70576696 13.375 133.5625 C13.16796875 136.27734375 13.16796875 136.27734375 12.375 138.5625 C7.85511826 142.10511001 2.88188015 142.13923963 -2.65234375 141.9609375 C-7.36679329 141.32904019 -10.24035193 139.86121863 -13.625 136.5625 C-18.30135777 129.66444203 -19.34854236 123.42278096 -19.24023438 115.24121094 C-19.24578339 114.15698853 -19.2513324 113.07276611 -19.25704956 111.95568848 C-19.26877913 108.40228907 -19.24464313 104.85018354 -19.21875 101.296875 C-19.21703753 98.81447406 -19.21710597 96.33207131 -19.21887207 93.84967041 C-19.21722279 88.66164722 -19.19859102 83.47405821 -19.16699219 78.28613281 C-19.1272329 71.63919487 -19.12295904 64.99315935 -19.13045502 58.34612656 C-19.13352464 53.22628605 -19.1214057 48.10657257 -19.10432434 42.986763 C-19.09729982 40.5355738 -19.09416914 38.0843702 -19.09501648 35.63317108 C-19.09321776 32.21058612 -19.07183088 28.78867865 -19.04492188 25.36621094 C-19.04785248 24.35621033 -19.05078308 23.34620972 -19.05380249 22.30560303 C-18.97081116 15.46010694 -17.89971168 11.13651585 -13.25 5.875 C-8.99285245 2.12465573 -5.75325755 0.11630575 0 0 Z " fill="#0CB7E0" transform="translate(99.625,55.4375)"/>
<path d="M0 0 C0 0.66 0 1.32 0 2 C-5.45769231 5.10096154 -5.45769231 5.10096154 -8.203125 4.58984375 C-8.79609375 4.39519531 -9.3890625 4.20054688 -10 4 C-8.71086513 3.32845067 -7.41859796 2.66291141 -6.125 2 C-5.40570313 1.62875 -4.68640625 1.2575 -3.9453125 0.875 C-2 0 -2 0 0 0 Z " fill="#69C2E9" transform="translate(77,10)"/>
<path d="M0 0 C6.875 3.75 6.875 3.75 8 6 C6.35 5.67 4.7 5.34 3 5 C2.67 4.01 2.34 3.02 2 2 C1.34 2 0.68 2 0 2 C0 1.34 0 0.68 0 0 Z " fill="#68C2E9" transform="translate(197,19)"/>
</svg>
